<svg xmlns="http://www.w3.org/2000/svg" viewBox="0 0 512 512"><defs><linearGradient id="g" x1="0" y1="0" x2="512" y2="512" gradientUnits="userSpaceOnUse"><stop offset="0" stop-color="#63C141"/><stop offset="1" stop-color="#49A329"/></linearGradient></defs><rect width="512" height="512" fill="url(#g)"/><g transform="translate(256,258) scale(1) translate(-256,-258)">
    <path fill="#ffffff" fill-rule="evenodd" d="M264,190 C 247,164 222,154 222,128 A42,42 0 1 1 306,128 C 306,154 281,164 264,190 Z M245,128 a19,19 0 1 0 38,0 a19,19 0 1 0 -38,0 Z"/>
    <rect x="166" y="198" width="196" height="28" rx="10" fill="#ffffff"/>
    <rect x="174" y="238" width="180" height="152" rx="14" fill="#ffffff"/>
    <rect x="112" y="272" width="48" height="20" rx="10" fill="#ffffff"/>
    <rect x="112" y="306" width="36" height="20" rx="10" fill="#ffffff"/>
    <rect x="112" y="340" width="24" height="20" rx="10" fill="#ffffff"/>
    <text x="264" y="356" font-family="Arial, Helvetica, sans-serif" font-size="118" font-weight="900" text-anchor="middle" letter-spacing="-5"><tspan fill="#16243F">F</tspan><tspan fill="#57B935">F</tspan></text>
  </g></svg>