<?xml version="1.0" encoding="UTF-8"?>
<svg xmlns="http://www.w3.org/2000/svg" viewBox="0 0 576 288" preserveAspectRatio="xMidYMid slice">
  <defs>
    <linearGradient id="g" x1="0%" y1="0%" x2="100%" y2="100%">
      <stop offset="0%" stop-color="#7c2d12"/>
      <stop offset="50%" stop-color="#b45309"/>
      <stop offset="100%" stop-color="#fbbf24"/>
    </linearGradient>
  </defs>
  <rect width="576" height="288" fill="url(#g)"/>
  <!-- Steam swirls -->
  <g stroke="#fff" stroke-width="2" fill="none" opacity="0.25" stroke-linecap="round">
    <path d="M 440 60 Q 460 45 450 30 Q 440 15 460 5"/>
    <path d="M 475 80 Q 495 65 485 50 Q 475 35 495 25"/>
    <path d="M 510 60 Q 530 45 520 30 Q 510 15 530 5"/>
  </g>
  <!-- Plate -->
  <ellipse cx="475" cy="180" rx="80" ry="20" fill="#fef3c7" opacity="0.95"/>
  <ellipse cx="475" cy="172" rx="78" ry="18" fill="#fff"/>
  <!-- Pizza on plate -->
  <circle cx="475" cy="170" r="55" fill="#fbbf24"/>
  <circle cx="475" cy="170" r="48" fill="#f87171"/>
  <g fill="#dc2626" opacity="0.85">
    <circle cx="455" cy="155" r="6"/>
    <circle cx="490" cy="155" r="5"/>
    <circle cx="465" cy="180" r="5"/>
    <circle cx="495" cy="185" r="6"/>
    <circle cx="475" cy="200" r="5"/>
  </g>
  <g fill="#fde68a">
    <circle cx="475" cy="170" r="4"/>
    <circle cx="450" cy="170" r="3"/>
    <circle cx="495" cy="170" r="3"/>
  </g>
  <!-- Text -->
  <text x="60" y="125" font-family="system-ui,-apple-system,sans-serif" font-size="48" font-weight="900" fill="#fff" letter-spacing="-1">TASTY</text>
  <text x="60" y="175" font-family="system-ui,-apple-system,sans-serif" font-size="48" font-weight="900" fill="#fff" letter-spacing="-1">DEAL</text>
  <text x="60" y="215" font-family="system-ui,-apple-system,sans-serif" font-size="18" font-weight="600" fill="#fef3c7" letter-spacing="2">ONLY TODAY</text>
</svg>
