<?xml version="1.0" encoding="UTF-8"?>
<svg xmlns="http://www.w3.org/2000/svg" viewBox="0 0 576 288" preserveAspectRatio="xMidYMid slice">
  <defs>
    <linearGradient id="bg" x1="0%" y1="0%" x2="100%" y2="100%">
      <stop offset="0%" stop-color="#78350f"/>
      <stop offset="100%" stop-color="#ca8a04"/>
    </linearGradient>
    <radialGradient id="glow" cx="30%" cy="50%" r="55%">
      <stop offset="0%" stop-color="#fde68a" stop-opacity="0.4"/>
      <stop offset="100%" stop-color="#78350f" stop-opacity="0"/>
    </radialGradient>
  </defs>
  <rect width="576" height="288" fill="url(#bg)"/>
  <rect width="576" height="288" fill="url(#glow)"/>
  <g transform="translate(160 152)">
    <path d="M -110 -30 Q -110 -90 0 -90 Q 110 -90 110 -30 Z" fill="#d97706"/>
    <g fill="#fef3c7">
      <circle cx="-50" cy="-65" r="4"/>
      <circle cx="0" cy="-75" r="4"/>
      <circle cx="50" cy="-65" r="4"/>
      <circle cx="-25" cy="-50" r="3"/>
      <circle cx="30" cy="-55" r="3"/>
    </g>
    <rect x="-110" y="-30" width="220" height="14" fill="#16a34a"/>
    <path d="M -112 -16 Q -100 -8 -85 -16 Q -70 -8 -55 -16 Q -40 -8 -25 -16 Q -10 -8 5 -16 Q 20 -8 35 -16 Q 50 -8 65 -16 Q 80 -8 95 -16 Q 110 -8 112 -16 Z" fill="#16a34a"/>
    <rect x="-110" y="-16" width="220" height="22" fill="#fde047"/>
    <rect x="-110" y="6" width="220" height="20" fill="#7c2d12"/>
    <rect x="-110" y="26" width="220" height="20" fill="#fef3c7"/>
    <path d="M -110 46 Q 0 80 110 46 L 110 60 Q 0 90 -110 60 Z" fill="#d97706"/>
  </g>
  <g fill="#fef3c7" opacity="0.18">
    <circle cx="450" cy="60" r="6"/>
    <circle cx="500" cy="100" r="4"/>
    <circle cx="430" cy="220" r="5"/>
    <circle cx="510" cy="240" r="5"/>
  </g>
</svg>
