<?xml version="1.0" encoding="UTF-8"?>
<svg xmlns="http://www.w3.org/2000/svg" viewBox="0 0 576 288" preserveAspectRatio="xMidYMid slice">
  <defs>
    <linearGradient id="bg" x1="0%" y1="0%" x2="100%" y2="100%">
      <stop offset="0%" stop-color="#7c2d12"/>
      <stop offset="100%" stop-color="#dc2626"/>
    </linearGradient>
    <radialGradient id="glow" cx="35%" cy="50%" r="60%">
      <stop offset="0%" stop-color="#fbbf24" stop-opacity="0.4"/>
      <stop offset="100%" stop-color="#7c2d12" stop-opacity="0"/>
    </radialGradient>
  </defs>
  <rect width="576" height="288" fill="url(#bg)"/>
  <rect width="576" height="288" fill="url(#glow)"/>
  <g transform="translate(160 144)">
    <circle r="120" fill="#fbbf24"/>
    <circle r="108" fill="#f87171"/>
    <g fill="#dc2626" opacity="0.9">
      <circle cx="-40" cy="-32" r="14"/>
      <circle cx="36" cy="-28" r="12"/>
      <circle cx="-22" cy="22" r="11"/>
      <circle cx="44" cy="34" r="13"/>
      <circle cx="-58" cy="42" r="10"/>
      <circle cx="14" cy="56" r="11"/>
      <circle cx="62" cy="-2" r="9"/>
    </g>
    <g fill="#fef3c7" opacity="0.85">
      <circle cx="-12" cy="-16" r="6"/>
      <circle cx="22" cy="14" r="5"/>
      <circle cx="-44" cy="6" r="4"/>
      <circle cx="50" cy="-22" r="4"/>
    </g>
  </g>
  <g fill="#fef3c7" opacity="0.18">
    <circle cx="450" cy="60" r="6"/>
    <circle cx="490" cy="120" r="4"/>
    <circle cx="520" cy="80" r="5"/>
    <circle cx="430" cy="220" r="5"/>
    <circle cx="510" cy="240" r="6"/>
  </g>
</svg>
